<svg width="73" height="21" viewBox="0 0 73 21" fill="none" xmlns="http://www.w3.org/2000/svg">
<path d="M0.190927 19.7439V0.727114H4.21268V16.4146H11.9366V19.7439H0.190927ZM31.9894 10.2089C31.9894 12.1798 31.6609 13.9021 31.0039 15.3759C30.3647 16.8319 29.3792 17.9683 28.0475 18.7851C26.7158 19.6018 25.0112 20.0102 22.9338 20.0102C20.8741 20.0102 19.1695 19.6018 17.82 18.7851C16.4883 17.9683 15.494 16.823 14.837 15.3493C14.1978 13.8755 13.8782 12.1532 13.8782 10.1822C13.8782 8.21131 14.1978 6.49785 14.837 5.04185C15.494 3.58585 16.4883 2.45833 17.82 1.65931C19.1695 0.842529 20.883 0.434139 22.9604 0.434139C25.0201 0.434139 26.7158 0.842529 28.0475 1.65931C29.3792 2.45833 30.3647 3.59472 31.0039 5.06848C31.6609 6.52448 31.9894 8.23794 31.9894 10.2089ZM18.113 10.2089C18.113 12.1976 18.4948 13.769 19.2583 14.9231C20.0218 16.0595 21.247 16.6277 22.9338 16.6277C24.6561 16.6277 25.8902 16.0595 26.6359 14.9231C27.3817 13.769 27.7546 12.1976 27.7546 10.2089C27.7546 8.20243 27.3817 6.63102 26.6359 5.49463C25.8902 4.35824 24.665 3.79004 22.9604 3.79004C21.2558 3.79004 20.0218 4.35824 19.2583 5.49463C18.4948 6.63102 18.113 8.20243 18.113 10.2089ZM43.1464 9.0636H50.6839V18.9182C49.6895 19.2556 48.6508 19.5219 47.5677 19.7173C46.5023 19.9126 45.286 20.0102 43.9188 20.0102C41.0778 20.0102 38.8938 19.1757 37.3668 17.5066C35.8398 15.8376 35.0763 13.405 35.0763 10.2089C35.0763 8.22019 35.458 6.49785 36.2215 5.04185C37.0028 3.58585 38.1303 2.45833 39.6041 1.65931C41.0778 0.860285 42.8801 0.460773 45.0108 0.460773C46.0229 0.460773 47.0172 0.567309 47.9938 0.780383C48.9704 0.993456 49.8582 1.27755 50.6572 1.63268L49.3255 4.85541C48.7396 4.55355 48.0737 4.30497 47.328 4.10965C46.5822 3.91433 45.8009 3.81667 44.9842 3.81667C43.8123 3.81667 42.7913 4.08302 41.9212 4.6157C41.0689 5.14838 40.4031 5.90302 39.9237 6.8796C39.462 7.83843 39.2312 8.97482 39.2312 10.2888C39.2312 11.5317 39.3999 12.6326 39.7372 13.5914C40.0746 14.5502 40.6073 15.3049 41.3353 15.8553C42.0633 16.388 43.0132 16.6543 44.1851 16.6543C44.7533 16.6543 45.2327 16.6277 45.6234 16.5744C46.0318 16.5212 46.4046 16.459 46.742 16.388V12.4195H43.1464V9.0636ZM72.4608 10.2089C72.4608 12.1798 72.1323 13.9021 71.4754 15.3759C70.8361 16.8319 69.8507 17.9683 68.519 18.7851C67.1873 19.6018 65.4827 20.0102 63.4052 20.0102C61.3455 20.0102 59.6409 19.6018 58.2914 18.7851C56.9597 17.9683 55.9654 16.823 55.3084 15.3493C54.6692 13.8755 54.3496 12.1532 54.3496 10.1822C54.3496 8.21131 54.6692 6.49785 55.3084 5.04185C55.9654 3.58585 56.9597 2.45833 58.2914 1.65931C59.6409 0.842529 61.3544 0.434139 63.4318 0.434139C65.4915 0.434139 67.1873 0.842529 68.519 1.65931C69.8507 2.45833 70.8361 3.59472 71.4754 5.06848C72.1323 6.52448 72.4608 8.23794 72.4608 10.2089ZM58.5844 10.2089C58.5844 12.1976 58.9662 13.769 59.7297 14.9231C60.4932 16.0595 61.7184 16.6277 63.4052 16.6277C65.1275 16.6277 66.3616 16.0595 67.1074 14.9231C67.8531 13.769 68.226 12.1976 68.226 10.2089C68.226 8.20243 67.8531 6.63102 67.1074 5.49463C66.3616 4.35824 65.1364 3.79004 63.4318 3.79004C61.7273 3.79004 60.4932 4.35824 59.7297 5.49463C58.9662 6.63102 58.5844 8.20243 58.5844 10.2089Z" fill="black"/>
</svg>
